<?xml version="1.0" encoding="UTF-8" standalone="no"?>
<!DOCTYPE svg PUBLIC "-//W3C//DTD SVG 1.1//EN"
 "http://www.w3.org/Graphics/SVG/1.1/DTD/svg11.dtd">
<!-- Generated by graphviz version 2.30.1 (20130403.1608)
 -->
<!-- Title: controllers_diagram Pages: 1 -->
<svg width="685pt" height="793pt"
 viewBox="0.00 0.00 685.38 793.43" xmlns="http://www.w3.org/2000/svg" xmlns:xlink="http://www.w3.org/1999/xlink">
<g id="graph0" class="graph" transform="scale(1 1) rotate(0) translate(4 789.429)">
<title>controllers_diagram</title>
<polygon fill="white" stroke="white" points="-4,5 -4,-789.429 682.375,-789.429 682.375,5 -4,5"/>
<!-- _diagram_info -->
<g id="node1" class="node"><title>_diagram_info</title>
<text text-anchor="start" x="478" y="-680" font-family="Times,serif" font-size="13.00">Controllers diagram</text>
<text text-anchor="start" x="478" y="-664.4" font-family="Times,serif" font-size="13.00">Date: Jul 28 2014 &#45; 08:27</text>
<text text-anchor="start" x="478" y="-648.8" font-family="Times,serif" font-size="13.00">Migration version: 20140719221927</text>
<text text-anchor="start" x="478" y="-633.2" font-family="Times,serif" font-size="13.00">Generated by RailRoady 1.1.1</text>
<text text-anchor="start" x="478" y="-617.6" font-family="Times,serif" font-size="13.00">http://railroady.prestonlee.com</text>
</g>
<!-- AdminsController -->
<g id="node2" class="node"><title>AdminsController</title>
<path fill="none" stroke="black" d="M18.7626,-90.3771C18.7626,-90.3771 112.645,-90.3771 112.645,-90.3771 118.645,-90.3771 124.645,-96.3771 124.645,-102.377 124.645,-102.377 124.645,-176.777 124.645,-176.777 124.645,-182.777 118.645,-188.777 112.645,-188.777 112.645,-188.777 18.7626,-188.777 18.7626,-188.777 12.7626,-188.777 6.76265,-182.777 6.76265,-176.777 6.76265,-176.777 6.76265,-102.377 6.76265,-102.377 6.76265,-96.3771 12.7626,-90.3771 18.7626,-90.3771"/>
<text text-anchor="middle" x="65.7041" y="-170.777" font-family="Times,serif" font-size="14.00">AdminsController</text>
<polyline fill="none" stroke="black" points="6.76265,-163.977 124.645,-163.977 "/>
<text text-anchor="start" x="14.7626" y="-145.977" font-family="Times,serif" font-size="14.00">dashboard</text>
<polyline fill="none" stroke="black" points="6.76265,-139.177 124.645,-139.177 "/>
<polyline fill="none" stroke="black" points="6.76265,-115.177 124.645,-115.177 "/>
<text text-anchor="start" x="14.7626" y="-97.1771" font-family="Times,serif" font-size="14.00">_layout</text>
</g>
<!-- ApplicationController -->
<g id="node3" class="node"><title>ApplicationController</title>
<path fill="none" stroke="black" d="M24.2872,-324.321C24.2872,-324.321 139.929,-324.321 139.929,-324.321 145.929,-324.321 151.929,-330.321 151.929,-336.321 151.929,-336.321 151.929,-444.321 151.929,-444.321 151.929,-450.321 145.929,-456.321 139.929,-456.321 139.929,-456.321 24.2872,-456.321 24.2872,-456.321 18.2872,-456.321 12.2872,-450.321 12.2872,-444.321 12.2872,-444.321 12.2872,-336.321 12.2872,-336.321 12.2872,-330.321 18.2872,-324.321 24.2872,-324.321"/>
<text text-anchor="middle" x="82.108" y="-438.321" font-family="Times,serif" font-size="14.00">ApplicationController</text>
<polyline fill="none" stroke="black" points="12.2872,-431.521 151.929,-431.521 "/>
<text text-anchor="start" x="20.2872" y="-413.521" font-family="Times,serif" font-size="14.00">check_first_login</text>
<text text-anchor="start" x="20.2872" y="-396.721" font-family="Times,serif" font-size="14.00">set_locale</text>
<polyline fill="none" stroke="black" points="12.2872,-389.921 151.929,-389.921 "/>
<polyline fill="none" stroke="black" points="12.2872,-365.921 151.929,-365.921 "/>
<text text-anchor="start" x="20.2872" y="-347.921" font-family="Times,serif" font-size="14.00">_layout</text>
<text text-anchor="start" x="20.2872" y="-331.121" font-family="Times,serif" font-size="14.00">current_user</text>
</g>
<!-- ApplicationController&#45;&gt;AdminsController -->
<g id="edge1" class="edge"><title>ApplicationController&#45;&gt;AdminsController</title>
<path fill="none" stroke="black" d="M77.7766,-324.113C75.0049,-281.746 71.468,-227.682 68.9402,-189.043"/>
</g>
<!-- EmailsController -->
<g id="node4" class="node"><title>EmailsController</title>
<path fill="none" stroke="black" d="M299.22,-0.5C299.22,-0.5 401.606,-0.5 401.606,-0.5 407.606,-0.5 413.606,-6.5 413.606,-12.5 413.606,-12.5 413.606,-271.7 413.606,-271.7 413.606,-277.7 407.606,-283.7 401.606,-283.7 401.606,-283.7 299.22,-283.7 299.22,-283.7 293.22,-283.7 287.22,-277.7 287.22,-271.7 287.22,-271.7 287.22,-12.5 287.22,-12.5 287.22,-6.5 293.22,-0.5 299.22,-0.5"/>
<text text-anchor="middle" x="350.413" y="-265.7" font-family="Times,serif" font-size="14.00">EmailsController</text>
<polyline fill="none" stroke="black" points="287.22,-258.9 413.606,-258.9 "/>
<text text-anchor="start" x="295.22" y="-240.9" font-family="Times,serif" font-size="14.00">_callback_before_5</text>
<text text-anchor="start" x="295.22" y="-224.1" font-family="Times,serif" font-size="14.00">create</text>
<text text-anchor="start" x="295.22" y="-207.3" font-family="Times,serif" font-size="14.00">destroy</text>
<text text-anchor="start" x="295.22" y="-190.5" font-family="Times,serif" font-size="14.00">edit</text>
<text text-anchor="start" x="295.22" y="-173.7" font-family="Times,serif" font-size="14.00">index</text>
<text text-anchor="start" x="295.22" y="-156.9" font-family="Times,serif" font-size="14.00">new</text>
<text text-anchor="start" x="295.22" y="-140.1" font-family="Times,serif" font-size="14.00">send_email</text>
<text text-anchor="start" x="295.22" y="-123.3" font-family="Times,serif" font-size="14.00">show</text>
<text text-anchor="start" x="295.22" y="-106.5" font-family="Times,serif" font-size="14.00">toggle_value</text>
<text text-anchor="start" x="295.22" y="-89.7" font-family="Times,serif" font-size="14.00">update</text>
<polyline fill="none" stroke="black" points="287.22,-82.9 413.606,-82.9 "/>
<polyline fill="none" stroke="black" points="287.22,-58.9 413.606,-58.9 "/>
<text text-anchor="start" x="295.22" y="-40.9" font-family="Times,serif" font-size="14.00">_layout</text>
<text text-anchor="start" x="295.22" y="-24.1" font-family="Times,serif" font-size="14.00">email_params</text>
<text text-anchor="start" x="295.22" y="-7.3" font-family="Times,serif" font-size="14.00">set_email</text>
</g>
<!-- ApplicationController&#45;&gt;EmailsController -->
<g id="edge2" class="edge"><title>ApplicationController&#45;&gt;EmailsController</title>
<path fill="none" stroke="black" d="M152.251,-325.428C194.018,-286.788 246.597,-238.145 287.097,-200.676"/>
</g>
<!-- ErrorsController -->
<g id="node5" class="node"><title>ErrorsController</title>
<path fill="none" stroke="black" d="M304.797,-602.779C304.797,-602.779 389.328,-602.779 389.328,-602.779 395.328,-602.779 401.328,-608.779 401.328,-614.779 401.328,-614.779 401.328,-689.179 401.328,-689.179 401.328,-695.179 395.328,-701.179 389.328,-701.179 389.328,-701.179 304.797,-701.179 304.797,-701.179 298.797,-701.179 292.797,-695.179 292.797,-689.179 292.797,-689.179 292.797,-614.779 292.797,-614.779 292.797,-608.779 298.797,-602.779 304.797,-602.779"/>
<text text-anchor="middle" x="347.062" y="-683.179" font-family="Times,serif" font-size="14.00">ErrorsController</text>
<polyline fill="none" stroke="black" points="292.797,-676.379 401.328,-676.379 "/>
<text text-anchor="start" x="300.797" y="-658.379" font-family="Times,serif" font-size="14.00">handle404</text>
<polyline fill="none" stroke="black" points="292.797,-651.579 401.328,-651.579 "/>
<polyline fill="none" stroke="black" points="292.797,-627.579 401.328,-627.579 "/>
<text text-anchor="start" x="300.797" y="-609.579" font-family="Times,serif" font-size="14.00">_layout</text>
</g>
<!-- ApplicationController&#45;&gt;ErrorsController -->
<g id="edge3" class="edge"><title>ApplicationController&#45;&gt;ErrorsController</title>
<path fill="none" stroke="black" d="M148.967,-456.348C194.958,-501.767 255.064,-561.125 296.954,-602.494"/>
</g>
<!-- SessionsController -->
<g id="node6" class="node"><title>SessionsController</title>
<path fill="none" stroke="black" d="M308.448,-293.097C308.448,-293.097 420.972,-293.097 420.972,-293.097 426.972,-293.097 432.972,-299.097 432.972,-305.097 432.972,-305.097 432.972,-497.097 432.972,-497.097 432.972,-503.097 426.972,-509.097 420.972,-509.097 420.972,-509.097 308.448,-509.097 308.448,-509.097 302.448,-509.097 296.448,-503.097 296.448,-497.097 296.448,-497.097 296.448,-305.097 296.448,-305.097 296.448,-299.097 302.448,-293.097 308.448,-293.097"/>
<text text-anchor="middle" x="364.71" y="-491.097" font-family="Times,serif" font-size="14.00">SessionsController</text>
<polyline fill="none" stroke="black" points="296.448,-484.297 432.972,-484.297 "/>
<text text-anchor="start" x="304.448" y="-466.297" font-family="Times,serif" font-size="14.00">change_password</text>
<text text-anchor="start" x="304.448" y="-449.497" font-family="Times,serif" font-size="14.00">create</text>
<text text-anchor="start" x="304.448" y="-432.697" font-family="Times,serif" font-size="14.00">destroy</text>
<text text-anchor="start" x="304.448" y="-415.897" font-family="Times,serif" font-size="14.00">do_change_password</text>
<text text-anchor="start" x="304.448" y="-399.097" font-family="Times,serif" font-size="14.00">new</text>
<text text-anchor="start" x="304.448" y="-382.297" font-family="Times,serif" font-size="14.00">recover_pass</text>
<text text-anchor="start" x="304.448" y="-365.497" font-family="Times,serif" font-size="14.00">send_pass_recovery</text>
<text text-anchor="start" x="304.448" y="-348.697" font-family="Times,serif" font-size="14.00">unsubscribe</text>
<polyline fill="none" stroke="black" points="296.448,-341.897 432.972,-341.897 "/>
<polyline fill="none" stroke="black" points="296.448,-317.897 432.972,-317.897 "/>
<text text-anchor="start" x="304.448" y="-299.897" font-family="Times,serif" font-size="14.00">_layout</text>
</g>
<!-- ApplicationController&#45;&gt;SessionsController -->
<g id="edge4" class="edge"><title>ApplicationController&#45;&gt;SessionsController</title>
<path fill="none" stroke="black" d="M151.965,-392.985C195.933,-394.661 252.425,-396.816 296.145,-398.483"/>
</g>
<!-- UsersController -->
<g id="node7" class="node"><title>UsersController</title>
<path fill="none" stroke="black" d="M12,-501.729C12,-501.729 114.387,-501.729 114.387,-501.729 120.387,-501.729 126.387,-507.729 126.387,-513.729 126.387,-513.729 126.387,-772.929 126.387,-772.929 126.387,-778.929 120.387,-784.929 114.387,-784.929 114.387,-784.929 12,-784.929 12,-784.929 6,-784.929 2.84217e-14,-778.929 2.84217e-14,-772.929 2.84217e-14,-772.929 2.84217e-14,-513.729 2.84217e-14,-513.729 2.84217e-14,-507.729 6,-501.729 12,-501.729"/>
<text text-anchor="middle" x="63.1934" y="-766.929" font-family="Times,serif" font-size="14.00">UsersController</text>
<polyline fill="none" stroke="black" points="2.84217e-14,-760.129 126.387,-760.129 "/>
<text text-anchor="start" x="8" y="-742.129" font-family="Times,serif" font-size="14.00">_callback_before_6</text>
<text text-anchor="start" x="8" y="-725.329" font-family="Times,serif" font-size="14.00">activate</text>
<text text-anchor="start" x="8" y="-708.529" font-family="Times,serif" font-size="14.00">create</text>
<text text-anchor="start" x="8" y="-691.729" font-family="Times,serif" font-size="14.00">destroy</text>
<text text-anchor="start" x="8" y="-674.929" font-family="Times,serif" font-size="14.00">edit</text>
<text text-anchor="start" x="8" y="-658.129" font-family="Times,serif" font-size="14.00">index</text>
<text text-anchor="start" x="8" y="-641.329" font-family="Times,serif" font-size="14.00">new</text>
<text text-anchor="start" x="8" y="-624.529" font-family="Times,serif" font-size="14.00">set_password</text>
<text text-anchor="start" x="8" y="-607.729" font-family="Times,serif" font-size="14.00">show</text>
<text text-anchor="start" x="8" y="-590.929" font-family="Times,serif" font-size="14.00">update</text>
<polyline fill="none" stroke="black" points="2.84217e-14,-584.129 126.387,-584.129 "/>
<polyline fill="none" stroke="black" points="2.84217e-14,-560.129 126.387,-560.129 "/>
<text text-anchor="start" x="8" y="-542.129" font-family="Times,serif" font-size="14.00">_layout</text>
<text text-anchor="start" x="8" y="-525.329" font-family="Times,serif" font-size="14.00">set_user</text>
<text text-anchor="start" x="8" y="-508.529" font-family="Times,serif" font-size="14.00">user_params</text>
</g>
<!-- ApplicationController&#45;&gt;UsersController -->
<g id="edge5" class="edge"><title>ApplicationController&#45;&gt;UsersController</title>
<path fill="none" stroke="black" d="M77.1631,-456.465C76.1123,-470.521 74.9644,-485.875 73.7928,-501.547"/>
</g>
</g>
</svg>
