<?xml version="1.0" encoding="UTF-8" standalone="no"?>
<!DOCTYPE svg PUBLIC "-//W3C//DTD SVG 1.1//EN"
 "http://www.w3.org/Graphics/SVG/1.1/DTD/svg11.dtd">
<!-- Generated by graphviz version 2.30.1 (20130403.1608)
 -->
<!-- Title: models_diagram Pages: 1 -->
<svg width="675pt" height="310pt"
 viewBox="0.00 0.00 675.12 310.00" xmlns="http://www.w3.org/2000/svg" xmlns:xlink="http://www.w3.org/1999/xlink">
<g id="graph0" class="graph" transform="scale(1 1) rotate(0) translate(4 306)">
<title>models_diagram</title>
<polygon fill="white" stroke="white" points="-4,5 -4,-306 672.115,-306 672.115,5 -4,5"/>
<!-- _diagram_info -->
<g id="node1" class="node"><title>_diagram_info</title>
<text text-anchor="start" x="7.31226" y="-285" font-family="Times,serif" font-size="13.00">Models diagram</text>
<text text-anchor="start" x="7.31226" y="-269.4" font-family="Times,serif" font-size="13.00">Date: Jul 28 2014 &#45; 08:27</text>
<text text-anchor="start" x="7.31226" y="-253.8" font-family="Times,serif" font-size="13.00">Migration version: 20140719221927</text>
<text text-anchor="start" x="7.31226" y="-238.2" font-family="Times,serif" font-size="13.00">Generated by RailRoady 1.1.1</text>
<text text-anchor="start" x="7.31226" y="-222.6" font-family="Times,serif" font-size="13.00">http://railroady.prestonlee.com</text>
</g>
<!-- Ability -->
<g id="node2" class="node"><title>Ability</title>
<polygon fill="none" stroke="black" points="288.255,-180 233.745,-180 233.745,-144 288.255,-144 288.255,-180"/>
<text text-anchor="middle" x="261" y="-156.4" font-family="Times,serif" font-size="14.00">Ability</text>
</g>
<!-- Blacklist -->
<g id="node3" class="node"><title>Blacklist</title>
<ellipse fill="none" stroke="black" cx="352" cy="-162" rx="45.0539" ry="18"/>
<text text-anchor="middle" x="352" y="-156.4" font-family="Times,serif" font-size="14.00">Blacklist</text>
</g>
<!-- Conversation -->
<g id="node4" class="node"><title>Conversation</title>
<ellipse fill="none" stroke="black" cx="372" cy="-90" rx="62.2984" ry="18"/>
<text text-anchor="middle" x="372" y="-84.4" font-family="Times,serif" font-size="14.00">Conversation</text>
</g>
<!-- Email -->
<g id="node5" class="node"><title>Email</title>
<ellipse fill="none" stroke="black" cx="463" cy="-18" rx="34.1487" ry="18"/>
<text text-anchor="middle" x="463" y="-12.4" font-family="Times,serif" font-size="14.00">Email</text>
</g>
<!-- Conversation&#45;&gt;Email -->
<g id="edge3" class="edge"><title>Conversation&#45;&gt;Email</title>
<path fill="none" stroke="#8a897b" d="M399.557,-67.8025C411.26,-58.7998 424.85,-48.3463 436.442,-39.4289"/>
<ellipse fill="none" stroke="#8a897b" cx="396.276" cy="-70.3258" rx="4.00002" ry="4.00002"/>
<polygon fill="#8a897b" stroke="#8a897b" points="436.549,-39.3471 447.219,-36.8167 440.512,-36.2985 444.475,-33.2499 444.475,-33.2499 444.475,-33.2499 440.512,-36.2985 441.731,-29.6831 436.549,-39.3471 436.549,-39.3471"/>
</g>
<!-- Role -->
<g id="node6" class="node"><title>Role</title>
<ellipse fill="none" stroke="black" cx="520" cy="-162" rx="28.9157" ry="18"/>
<text text-anchor="middle" x="520" y="-156.4" font-family="Times,serif" font-size="14.00">Role</text>
</g>
<!-- User -->
<g id="node9" class="node"><title>User</title>
<ellipse fill="none" stroke="black" cx="558" cy="-90" rx="28.9087" ry="18"/>
<text text-anchor="middle" x="558" y="-84.4" font-family="Times,serif" font-size="14.00">User</text>
</g>
<!-- Role&#45;&gt;User -->
<g id="edge6" class="edge"><title>Role&#45;&gt;User</title>
<path fill="none" stroke="#1db93a" d="M533.658,-135.84C537.079,-129.539 540.751,-122.774 544.179,-116.459"/>
<polygon fill="#1db93a" stroke="#1db93a" points="533.584,-135.976 524.859,-142.618 531.199,-140.37 528.813,-144.765 528.813,-144.765 528.813,-144.765 531.199,-140.37 532.768,-146.912 533.584,-135.976 533.584,-135.976"/>
<polygon fill="#1db93a" stroke="#1db93a" points="544.199,-116.422 552.925,-109.78 546.585,-112.028 548.97,-107.633 548.97,-107.633 548.97,-107.633 546.585,-112.028 545.016,-105.486 544.199,-116.422 544.199,-116.422"/>
</g>
<!-- Spam -->
<g id="node7" class="node"><title>Spam</title>
<ellipse fill="none" stroke="black" cx="600" cy="-162" rx="33.0501" ry="18"/>
<text text-anchor="middle" x="600" y="-156.4" font-family="Times,serif" font-size="14.00">Spam</text>
</g>
<!-- Token -->
<g id="node8" class="node"><title>Token</title>
<ellipse fill="none" stroke="black" cx="596" cy="-18" rx="35.0491" ry="18"/>
<text text-anchor="middle" x="596" y="-12.4" font-family="Times,serif" font-size="14.00">Token</text>
</g>
<!-- User&#45;&gt;Token -->
<g id="edge10" class="edge"><title>User&#45;&gt;Token</title>
<path fill="none" stroke="#4a873e" d="M570.711,-65.5853C574.374,-58.837 578.389,-51.441 582.12,-44.5692"/>
<ellipse fill="none" stroke="#4a873e" cx="568.722" cy="-69.2492" rx="4.00002" ry="4.00002"/>
<polygon fill="#4a873e" stroke="#4a873e" points="582.199,-44.4219 590.925,-37.7803 584.585,-40.0277 586.97,-35.6334 586.97,-35.6334 586.97,-35.6334 584.585,-40.0277 583.016,-33.4865 582.199,-44.4219 582.199,-44.4219"/>
</g>
<!-- User&#45;&gt;Email -->
<g id="edge11" class="edge"><title>User&#45;&gt;Email</title>
<path fill="none" stroke="#5fa729" d="M533.166,-70.7012C520.116,-61.0856 504.085,-49.2732 490.642,-39.3678"/>
<ellipse fill="none" stroke="#5fa729" cx="536.463" cy="-73.1305" rx="4.00002" ry="4.00002"/>
<polygon fill="#5fa729" stroke="#5fa729" points="490.29,-39.1081 484.908,-29.5533 486.264,-36.1421 482.239,-33.1761 482.239,-33.1761 482.239,-33.1761 486.264,-36.1421 479.57,-36.7988 490.29,-39.1081 490.29,-39.1081"/>
</g>
<!-- Object -->
<g id="node10" class="node"><title>Object</title>
<ellipse fill="none" stroke="black" cx="261" cy="-259" rx="36.1697" ry="18"/>
<text text-anchor="middle" x="261" y="-253.4" font-family="Times,serif" font-size="14.00">Object</text>
</g>
<!-- Object&#45;&gt;Ability -->
<g id="edge1" class="edge"><title>Object&#45;&gt;Ability</title>
<path fill="none" stroke="black" d="M261,-240.576C261,-223.434 261,-197.417 261,-180.314"/>
</g>
<!-- ActiveRecord::Base -->
<g id="node11" class="node"><title>ActiveRecord::Base</title>
<ellipse fill="none" stroke="black" cx="520" cy="-259" rx="88.2033" ry="18"/>
<text text-anchor="middle" x="520" y="-253.4" font-family="Times,serif" font-size="14.00">ActiveRecord::Base</text>
</g>
<!-- ActiveRecord::Base&#45;&gt;Blacklist -->
<g id="edge2" class="edge"><title>ActiveRecord::Base&#45;&gt;Blacklist</title>
<path fill="none" stroke="black" d="M491.501,-241.885C459.391,-223.727 407.696,-194.495 377.068,-177.175"/>
</g>
<!-- ActiveRecord::Base&#45;&gt;Conversation -->
<g id="edge4" class="edge"><title>ActiveRecord::Base&#45;&gt;Conversation</title>
<path fill="none" stroke="black" d="M504.363,-241.07C489.894,-225.345 467.84,-201.229 449,-180 426.894,-155.091 401.722,-125.82 386.35,-107.841"/>
</g>
<!-- ActiveRecord::Base&#45;&gt;Email -->
<g id="edge5" class="edge"><title>ActiveRecord::Base&#45;&gt;Email</title>
<path fill="none" stroke="black" d="M509.647,-241.02C500.795,-225.656 488.489,-202.114 482,-180 467.103,-129.227 463.839,-66.1986 463.156,-36.297"/>
</g>
<!-- ActiveRecord::Base&#45;&gt;Role -->
<g id="edge7" class="edge"><title>ActiveRecord::Base&#45;&gt;Role</title>
<path fill="none" stroke="black" d="M520,-240.576C520,-223.434 520,-197.417 520,-180.314"/>
</g>
<!-- ActiveRecord::Base&#45;&gt;Spam -->
<g id="edge8" class="edge"><title>ActiveRecord::Base&#45;&gt;Spam</title>
<path fill="none" stroke="black" d="M534.302,-241.016C549.223,-223.297 572.418,-195.754 586.882,-178.578"/>
</g>
<!-- ActiveRecord::Base&#45;&gt;Token -->
<g id="edge9" class="edge"><title>ActiveRecord::Base&#45;&gt;Token</title>
<path fill="none" stroke="black" d="M569.762,-244.089C601.092,-232.468 639.069,-212.446 658,-180 687.133,-130.07 637.1,-63.9165 610.709,-34.3808"/>
</g>
<!-- ActiveRecord::Base&#45;&gt;User -->
<g id="edge12" class="edge"><title>ActiveRecord::Base&#45;&gt;User</title>
<path fill="none" stroke="black" d="M562.639,-243.221C590.692,-231.011 625.217,-210.65 642,-180 649.684,-165.966 649.726,-158.011 642,-144 629.593,-121.501 603.173,-107.238 583.254,-99.2457"/>
</g>
</g>
</svg>
