<?xml version="1.0" encoding="UTF-8" standalone="no"?>
<!DOCTYPE svg PUBLIC "-//W3C//DTD SVG 1.1//EN"
 "http://www.w3.org/Graphics/SVG/1.1/DTD/svg11.dtd">
<!-- Generated by graphviz version 2.30.1 (20130403.1608)
 -->
<!-- Title: models_diagram Pages: 1 -->
<svg width="1049pt" height="856pt"
 viewBox="0.00 0.00 1049.22 856.00" xmlns="http://www.w3.org/2000/svg" xmlns:xlink="http://www.w3.org/1999/xlink">
<g id="graph0" class="graph" transform="scale(1 1) rotate(0) translate(4 852)">
<title>models_diagram</title>
<polygon fill="white" stroke="white" points="-4,5 -4,-852 1046.22,-852 1046.22,5 -4,5"/>
<!-- _diagram_info -->
<g id="node1" class="node"><title>_diagram_info</title>
<text text-anchor="start" x="7.31226" y="-831" font-family="Times,serif" font-size="13.00">Models diagram</text>
<text text-anchor="start" x="7.31226" y="-815.4" font-family="Times,serif" font-size="13.00">Date: Jul 28 2014 &#45; 08:27</text>
<text text-anchor="start" x="7.31226" y="-799.8" font-family="Times,serif" font-size="13.00">Migration version: 20140719221927</text>
<text text-anchor="start" x="7.31226" y="-784.2" font-family="Times,serif" font-size="13.00">Generated by RailRoady 1.1.1</text>
<text text-anchor="start" x="7.31226" y="-768.6" font-family="Times,serif" font-size="13.00">http://railroady.prestonlee.com</text>
</g>
<!-- Ability -->
<g id="node2" class="node"><title>Ability</title>
<polygon fill="none" stroke="black" points="233.166,-524.2 233.166,-573.8 288.834,-573.8 288.834,-524.2 233.166,-524.2"/>
<text text-anchor="middle" x="261" y="-555.8" font-family="Times,serif" font-size="14.00">Ability</text>
<polyline fill="none" stroke="black" points="233.166,-549 288.834,-549 "/>
<text text-anchor="middle" x="261" y="-531" font-family="Times,serif" font-size="14.00"> </text>
</g>
<!-- Blacklist -->
<g id="node3" class="node"><title>Blacklist</title>
<path fill="none" stroke="black" d="M318.495,-482.2C318.495,-482.2 427.505,-482.2 427.505,-482.2 433.505,-482.2 439.505,-488.2 439.505,-494.2 439.505,-494.2 439.505,-603.8 439.505,-603.8 439.505,-609.8 433.505,-615.8 427.505,-615.8 427.505,-615.8 318.495,-615.8 318.495,-615.8 312.495,-615.8 306.495,-609.8 306.495,-603.8 306.495,-603.8 306.495,-494.2 306.495,-494.2 306.495,-488.2 312.495,-482.2 318.495,-482.2"/>
<text text-anchor="middle" x="373" y="-597.8" font-family="Times,serif" font-size="14.00">Blacklist</text>
<polyline fill="none" stroke="black" points="306.495,-591 439.505,-591 "/>
<text text-anchor="start" x="314.495" y="-573" font-family="Times,serif" font-size="14.00">id :integer</text>
<text text-anchor="start" x="314.495" y="-556.2" font-family="Times,serif" font-size="14.00">email_to :string</text>
<text text-anchor="start" x="314.495" y="-539.4" font-family="Times,serif" font-size="14.00">email_from :string</text>
<text text-anchor="start" x="314.495" y="-522.6" font-family="Times,serif" font-size="14.00">global :boolean</text>
<text text-anchor="start" x="314.495" y="-505.8" font-family="Times,serif" font-size="14.00">created_at :datetime</text>
<text text-anchor="start" x="314.495" y="-489" font-family="Times,serif" font-size="14.00">updated_at :datetime</text>
</g>
<!-- Conversation -->
<g id="node4" class="node"><title>Conversation</title>
<path fill="none" stroke="black" d="M469.495,-465.4C469.495,-465.4 578.505,-465.4 578.505,-465.4 584.505,-465.4 590.505,-471.4 590.505,-477.4 590.505,-477.4 590.505,-620.6 590.505,-620.6 590.505,-626.6 584.505,-632.6 578.505,-632.6 578.505,-632.6 469.495,-632.6 469.495,-632.6 463.495,-632.6 457.495,-626.6 457.495,-620.6 457.495,-620.6 457.495,-477.4 457.495,-477.4 457.495,-471.4 463.495,-465.4 469.495,-465.4"/>
<text text-anchor="middle" x="524" y="-614.6" font-family="Times,serif" font-size="14.00">Conversation</text>
<polyline fill="none" stroke="black" points="457.495,-607.8 590.505,-607.8 "/>
<text text-anchor="start" x="465.495" y="-589.8" font-family="Times,serif" font-size="14.00">id :integer</text>
<text text-anchor="start" x="465.495" y="-573" font-family="Times,serif" font-size="14.00">read :boolean</text>
<text text-anchor="start" x="465.495" y="-556.2" font-family="Times,serif" font-size="14.00">archived :boolean</text>
<text text-anchor="start" x="465.495" y="-539.4" font-family="Times,serif" font-size="14.00">answered :boolean</text>
<text text-anchor="start" x="465.495" y="-522.6" font-family="Times,serif" font-size="14.00">subject :string</text>
<text text-anchor="start" x="465.495" y="-505.8" font-family="Times,serif" font-size="14.00">created_at :datetime</text>
<text text-anchor="start" x="465.495" y="-489" font-family="Times,serif" font-size="14.00">updated_at :datetime</text>
<text text-anchor="start" x="465.495" y="-472.2" font-family="Times,serif" font-size="14.00">deleted :boolean</text>
</g>
<!-- Email -->
<g id="node5" class="node"><title>Email</title>
<path fill="none" stroke="black" d="M555.16,-0.4C555.16,-0.4 682.84,-0.4 682.84,-0.4 688.84,-0.4 694.84,-6.4 694.84,-12.4 694.84,-12.4 694.84,-323.6 694.84,-323.6 694.84,-329.6 688.84,-335.6 682.84,-335.6 682.84,-335.6 555.16,-335.6 555.16,-335.6 549.16,-335.6 543.16,-329.6 543.16,-323.6 543.16,-323.6 543.16,-12.4 543.16,-12.4 543.16,-6.4 549.16,-0.4 555.16,-0.4"/>
<text text-anchor="middle" x="619" y="-317.6" font-family="Times,serif" font-size="14.00">Email</text>
<polyline fill="none" stroke="black" points="543.16,-310.8 694.84,-310.8 "/>
<text text-anchor="start" x="551.16" y="-292.8" font-family="Times,serif" font-size="14.00">id :integer</text>
<text text-anchor="start" x="551.16" y="-276" font-family="Times,serif" font-size="14.00">sender :string</text>
<text text-anchor="start" x="551.16" y="-259.2" font-family="Times,serif" font-size="14.00">recipient :string</text>
<text text-anchor="start" x="551.16" y="-242.4" font-family="Times,serif" font-size="14.00">subject :string</text>
<text text-anchor="start" x="551.16" y="-225.6" font-family="Times,serif" font-size="14.00">body_plain :text</text>
<text text-anchor="start" x="551.16" y="-208.8" font-family="Times,serif" font-size="14.00">body_html :text</text>
<text text-anchor="start" x="551.16" y="-192" font-family="Times,serif" font-size="14.00">stripped_html :text</text>
<text text-anchor="start" x="551.16" y="-175.2" font-family="Times,serif" font-size="14.00">answered :boolean</text>
<text text-anchor="start" x="551.16" y="-158.4" font-family="Times,serif" font-size="14.00">read :boolean</text>
<text text-anchor="start" x="551.16" y="-141.6" font-family="Times,serif" font-size="14.00">archived :boolean</text>
<text text-anchor="start" x="551.16" y="-124.8" font-family="Times,serif" font-size="14.00">spam :boolean</text>
<text text-anchor="start" x="551.16" y="-108" font-family="Times,serif" font-size="14.00">conversation_id :integer</text>
<text text-anchor="start" x="551.16" y="-91.2" font-family="Times,serif" font-size="14.00">user_id :integer</text>
<text text-anchor="start" x="551.16" y="-74.4" font-family="Times,serif" font-size="14.00">cc :string</text>
<text text-anchor="start" x="551.16" y="-57.6" font-family="Times,serif" font-size="14.00">bcc :string</text>
<text text-anchor="start" x="551.16" y="-40.8" font-family="Times,serif" font-size="14.00">created_at :datetime</text>
<text text-anchor="start" x="551.16" y="-24" font-family="Times,serif" font-size="14.00">updated_at :datetime</text>
<text text-anchor="start" x="551.16" y="-7.2" font-family="Times,serif" font-size="14.00">deleted :boolean</text>
</g>
<!-- Conversation&#45;&gt;Email -->
<g id="edge3" class="edge"><title>Conversation&#45;&gt;Email</title>
<path fill="none" stroke="#942940" d="M546.771,-457.155C555.182,-423.599 565.028,-384.319 574.697,-345.747"/>
<ellipse fill="none" stroke="#942940" cx="545.703" cy="-461.415" rx="4.00001" ry="4.00001"/>
<polygon fill="#942940" stroke="#942940" points="574.719,-345.659 581.515,-337.054 575.934,-340.809 577.15,-335.959 577.15,-335.959 577.15,-335.959 575.934,-340.809 572.785,-334.865 574.719,-345.659 574.719,-345.659"/>
</g>
<!-- Spam -->
<g id="node6" class="node"><title>Spam</title>
<path fill="none" stroke="black" d="M659.495,-499C659.495,-499 768.505,-499 768.505,-499 774.505,-499 780.505,-505 780.505,-511 780.505,-511 780.505,-587 780.505,-587 780.505,-593 774.505,-599 768.505,-599 768.505,-599 659.495,-599 659.495,-599 653.495,-599 647.495,-593 647.495,-587 647.495,-587 647.495,-511 647.495,-511 647.495,-505 653.495,-499 659.495,-499"/>
<text text-anchor="middle" x="714" y="-581" font-family="Times,serif" font-size="14.00">Spam</text>
<polyline fill="none" stroke="black" points="647.495,-574.2 780.505,-574.2 "/>
<text text-anchor="start" x="655.495" y="-556.2" font-family="Times,serif" font-size="14.00">id :integer</text>
<text text-anchor="start" x="655.495" y="-539.4" font-family="Times,serif" font-size="14.00">email :string</text>
<text text-anchor="start" x="655.495" y="-522.6" font-family="Times,serif" font-size="14.00">created_at :datetime</text>
<text text-anchor="start" x="655.495" y="-505.8" font-family="Times,serif" font-size="14.00">updated_at :datetime</text>
</g>
<!-- Token -->
<g id="node7" class="node"><title>Token</title>
<path fill="none" stroke="black" d="M888.495,-109.6C888.495,-109.6 997.505,-109.6 997.505,-109.6 1003.51,-109.6 1009.51,-115.6 1009.51,-121.6 1009.51,-121.6 1009.51,-214.4 1009.51,-214.4 1009.51,-220.4 1003.51,-226.4 997.505,-226.4 997.505,-226.4 888.495,-226.4 888.495,-226.4 882.495,-226.4 876.495,-220.4 876.495,-214.4 876.495,-214.4 876.495,-121.6 876.495,-121.6 876.495,-115.6 882.495,-109.6 888.495,-109.6"/>
<text text-anchor="middle" x="943" y="-208.4" font-family="Times,serif" font-size="14.00">Token</text>
<polyline fill="none" stroke="black" points="876.495,-201.6 1009.51,-201.6 "/>
<text text-anchor="start" x="884.495" y="-183.6" font-family="Times,serif" font-size="14.00">id :integer</text>
<text text-anchor="start" x="884.495" y="-166.8" font-family="Times,serif" font-size="14.00">user_id :integer</text>
<text text-anchor="start" x="884.495" y="-150" font-family="Times,serif" font-size="14.00">value :string</text>
<text text-anchor="start" x="884.495" y="-133.2" font-family="Times,serif" font-size="14.00">created_at :datetime</text>
<text text-anchor="start" x="884.495" y="-116.4" font-family="Times,serif" font-size="14.00">updated_at :datetime</text>
</g>
<!-- User -->
<g id="node8" class="node"><title>User</title>
<path fill="none" stroke="black" d="M810.898,-373C810.898,-373 961.102,-373 961.102,-373 967.102,-373 973.102,-379 973.102,-385 973.102,-385 973.102,-713 973.102,-713 973.102,-719 967.102,-725 961.102,-725 961.102,-725 810.898,-725 810.898,-725 804.898,-725 798.898,-719 798.898,-713 798.898,-713 798.898,-385 798.898,-385 798.898,-379 804.898,-373 810.898,-373"/>
<text text-anchor="middle" x="886" y="-707" font-family="Times,serif" font-size="14.00">User</text>
<polyline fill="none" stroke="black" points="798.898,-700.2 973.102,-700.2 "/>
<text text-anchor="start" x="806.898" y="-682.2" font-family="Times,serif" font-size="14.00">id :integer</text>
<text text-anchor="start" x="806.898" y="-665.4" font-family="Times,serif" font-size="14.00">first_name :string</text>
<text text-anchor="start" x="806.898" y="-648.6" font-family="Times,serif" font-size="14.00">last_name :string</text>
<text text-anchor="start" x="806.898" y="-631.8" font-family="Times,serif" font-size="14.00">email :string</text>
<text text-anchor="start" x="806.898" y="-615" font-family="Times,serif" font-size="14.00">image :string</text>
<text text-anchor="start" x="806.898" y="-598.2" font-family="Times,serif" font-size="14.00">password_salt :string</text>
<text text-anchor="start" x="806.898" y="-581.4" font-family="Times,serif" font-size="14.00">password_hash :string</text>
<text text-anchor="start" x="806.898" y="-564.6" font-family="Times,serif" font-size="14.00">active :boolean</text>
<text text-anchor="start" x="806.898" y="-547.8" font-family="Times,serif" font-size="14.00">admin :boolean</text>
<text text-anchor="start" x="806.898" y="-531" font-family="Times,serif" font-size="14.00">first_login :boolean</text>
<text text-anchor="start" x="806.898" y="-514.2" font-family="Times,serif" font-size="14.00">deleted :boolean</text>
<text text-anchor="start" x="806.898" y="-497.4" font-family="Times,serif" font-size="14.00">sign_in_count :integer</text>
<text text-anchor="start" x="806.898" y="-480.6" font-family="Times,serif" font-size="14.00">last_sign_in_at :datetime</text>
<text text-anchor="start" x="806.898" y="-463.8" font-family="Times,serif" font-size="14.00">created_at :datetime</text>
<text text-anchor="start" x="806.898" y="-447" font-family="Times,serif" font-size="14.00">updated_at :datetime</text>
<text text-anchor="start" x="806.898" y="-430.2" font-family="Times,serif" font-size="14.00">avatar_file_name :string</text>
<text text-anchor="start" x="806.898" y="-413.4" font-family="Times,serif" font-size="14.00">avatar_content_type :string</text>
<text text-anchor="start" x="806.898" y="-396.6" font-family="Times,serif" font-size="14.00">avatar_file_size :integer</text>
<text text-anchor="start" x="806.898" y="-379.8" font-family="Times,serif" font-size="14.00">avatar_updated_at :datetime</text>
</g>
<!-- User&#45;&gt;Token -->
<g id="edge8" class="edge"><title>User&#45;&gt;Token</title>
<path fill="none" stroke="#bf090a" d="M913.541,-364.876C920.44,-319.007 927.413,-272.64 932.842,-236.54"/>
<ellipse fill="none" stroke="#bf090a" cx="912.926" cy="-368.967" rx="4.00001" ry="4.00001"/>
<polygon fill="#bf090a" stroke="#bf090a" points="932.844,-236.528 938.781,-227.309 933.588,-231.584 934.331,-226.639 934.331,-226.639 934.331,-226.639 933.588,-231.584 929.881,-225.97 932.844,-236.528 932.844,-236.528"/>
</g>
<!-- User&#45;&gt;Email -->
<g id="edge9" class="edge"><title>User&#45;&gt;Email</title>
<path fill="none" stroke="#e1d5db" d="M794.168,-379.665C792.451,-377.08 790.728,-374.523 789,-372 762.801,-333.741 730.855,-294.115 701.758,-260.139"/>
<ellipse fill="none" stroke="#e1d5db" cx="796.504" cy="-383.226" rx="4.00002" ry="4.00002"/>
<polygon fill="#e1d5db" stroke="#e1d5db" points="701.732,-260.109 698.619,-249.595 698.47,-256.32 695.208,-252.53 695.208,-252.53 695.208,-252.53 698.47,-256.32 691.798,-255.466 701.732,-260.109 701.732,-260.109"/>
</g>
<!-- Object -->
<g id="node9" class="node"><title>Object</title>
<ellipse fill="none" stroke="black" cx="261" cy="-805" rx="36.1697" ry="18"/>
<text text-anchor="middle" x="261" y="-799.4" font-family="Times,serif" font-size="14.00">Object</text>
</g>
<!-- Object&#45;&gt;Ability -->
<g id="edge1" class="edge"><title>Object&#45;&gt;Ability</title>
<path fill="none" stroke="black" d="M261,-786.94C261,-742.781 261,-624.648 261,-573.807"/>
</g>
<!-- ActiveRecord::Base -->
<g id="node10" class="node"><title>ActiveRecord::Base</title>
<ellipse fill="none" stroke="black" cx="667" cy="-805" rx="88.2033" ry="18"/>
<text text-anchor="middle" x="667" y="-799.4" font-family="Times,serif" font-size="14.00">ActiveRecord::Base</text>
</g>
<!-- ActiveRecord::Base&#45;&gt;Blacklist -->
<g id="edge2" class="edge"><title>ActiveRecord::Base&#45;&gt;Blacklist</title>
<path fill="none" stroke="black" d="M596.671,-794C549.469,-783.997 488.707,-764.309 448,-726 417.04,-696.864 398.29,-652.864 387.28,-616.148"/>
</g>
<!-- ActiveRecord::Base&#45;&gt;Conversation -->
<g id="edge4" class="edge"><title>ActiveRecord::Base&#45;&gt;Conversation</title>
<path fill="none" stroke="black" d="M651.701,-787.228C638.304,-772.001 618.867,-748.543 605,-726 587.024,-696.777 570.514,-662.901 557.155,-632.718"/>
</g>
<!-- ActiveRecord::Base&#45;&gt;Email -->
<g id="edge5" class="edge"><title>ActiveRecord::Base&#45;&gt;Email</title>
<path fill="none" stroke="black" d="M658.774,-786.812C651.806,-771.311 642.284,-747.685 638,-726 612.452,-596.667 608.716,-447.224 610.812,-335.713"/>
</g>
<!-- ActiveRecord::Base&#45;&gt;Spam -->
<g id="edge6" class="edge"><title>ActiveRecord::Base&#45;&gt;Spam</title>
<path fill="none" stroke="black" d="M670.157,-786.94C677.165,-749.066 694.243,-656.774 704.897,-599.195"/>
</g>
<!-- ActiveRecord::Base&#45;&gt;Token -->
<g id="edge7" class="edge"><title>ActiveRecord::Base&#45;&gt;Token</title>
<path fill="none" stroke="black" d="M743.483,-795.802C827.041,-785.084 952.921,-763.158 982,-726 1097.45,-578.472 1016.37,-336.272 969.691,-226.4"/>
</g>
<!-- ActiveRecord::Base&#45;&gt;User -->
<g id="edge10" class="edge"><title>ActiveRecord::Base&#45;&gt;User</title>
<path fill="none" stroke="black" d="M700.776,-788.287C727.257,-774.684 763.734,-752.968 789,-726 792.34,-722.436 795.604,-718.735 798.791,-714.923"/>
</g>
</g>
</svg>
